<?xml version="1.0" standalone="no"?>
<!DOCTYPE svg PUBLIC "-//W3C//DTD SVG 20010904//EN"
 "http://www.w3.org/TR/2001/REC-SVG-20010904/DTD/svg10.dtd">
<svg version="1.0" xmlns="http://www.w3.org/2000/svg"
 width="512.000000pt" height="512.000000pt" viewBox="0 0 512.000000 512.000000"
 preserveAspectRatio="xMidYMid meet">

<g transform="translate(0.000000,512.000000) scale(0.100000,-0.100000)"
fill="#FF0000" stroke="none">
<path d="M2430 4545 c-126 -28 -258 -110 -338 -209 -20 -24 -426 -681 -902
-1460 -702 -1146 -871 -1429 -890 -1487 -47 -151 -34 -314 36 -459 49 -99 169
-220 266 -267 149 -73 -7 -68 1958 -68 1966 0 1810 -5 1959 68 96 46 217 168
265 267 40 83 66 186 66 268 0 65 -25 188 -49 245 -16 36 -1604 2639 -1726
2827 -80 126 -200 218 -335 261 -86 27 -225 33 -310 14z m211 -1311 c15 -7 38
-28 51 -46 l23 -33 3 -533 c3 -591 6 -565 -65 -619 -30 -23 -46 -28 -93 -28
-47 0 -63 5 -93 28 -70 53 -67 29 -67 607 0 454 2 526 16 555 39 84 139 114
225 69z m14 -1441 c75 -38 118 -108 118 -193 0 -122 -91 -213 -213 -213 -174
0 -275 189 -178 333 61 90 178 121 273 73z"/>
</g>
</svg>
