<?xml version="1.0" standalone="no"?>
<!DOCTYPE svg PUBLIC "-//W3C//DTD SVG 20010904//EN"
 "http://www.w3.org/TR/2001/REC-SVG-20010904/DTD/svg10.dtd">
<svg version="1.0" xmlns="http://www.w3.org/2000/svg"
 width="512.000000pt" height="512.000000pt" viewBox="0 0 512.000000 512.000000"
 preserveAspectRatio="xMidYMid meet">

<g transform="translate(0.000000,512.000000) scale(0.100000,-0.100000)"
fill="#000000" stroke="none">
<path d="M923 4690 c-256 -28 -477 -206 -567 -459 l-31 -86 -3 -1130 c-3
-1251 -4 -1223 61 -1359 98 -204 275 -342 491 -384 l86 -17 0 -330 c0 -339 5
-390 38 -434 44 -59 136 -81 198 -47 16 8 178 132 359 276 182 144 357 279
390 301 129 86 319 166 485 203 140 32 263 36 1018 36 717 0 763 1 834 19 258
66 450 268 503 527 14 70 15 207 13 1209 l-3 1130 -31 86 c-61 171 -187 315
-338 389 -165 81 -6 74 -1816 76 -888 1 -1647 -2 -1687 -6z m3245 -320 c35 -6
85 -21 110 -33 64 -29 138 -105 170 -175 l27 -57 3 -1100 c3 -1005 2 -1105
-14 -1163 -27 -102 -100 -186 -204 -236 -45 -21 -54 -21 -880 -27 -731 -4
-846 -7 -925 -22 -222 -43 -415 -112 -597 -215 -105 -59 -156 -96 -405 -294
-88 -70 -164 -128 -167 -128 -3 0 -6 123 -6 274 0 267 -1 274 -22 306 -46 66
-64 73 -215 80 -93 5 -150 12 -176 23 -63 27 -125 77 -161 131 -70 103 -67 41
-64 1267 l3 1104 27 57 c50 108 155 188 271 207 77 13 3147 13 3225 1z"/>
<path d="M1564 3481 c-70 -17 -124 -86 -124 -158 0 -38 35 -104 68 -128 27
-20 43 -20 1052 -20 1009 0 1025 0 1052 20 33 24 68 91 68 130 0 46 -38 112
-78 137 l-37 23 -985 2 c-542 0 -999 -2 -1016 -6z"/>
<path d="M1530 2768 c-61 -31 -92 -86 -87 -151 5 -54 27 -91 77 -124 l33 -23
527 0 527 0 33 23 c50 33 72 70 77 124 5 65 -26 120 -87 151 -44 22 -45 22
-550 22 -505 0 -506 0 -550 -22z"/>
</g>
</svg>
