<?xml version="1.0" standalone="no"?>
<!DOCTYPE svg PUBLIC "-//W3C//DTD SVG 20010904//EN"
 "http://www.w3.org/TR/2001/REC-SVG-20010904/DTD/svg10.dtd">
<svg version="1.0" xmlns="http://www.w3.org/2000/svg"
 width="512.000000pt" height="512.000000pt" viewBox="0 0 512.000000 512.000000"
 preserveAspectRatio="xMidYMid meet">

<g transform="translate(0.000000,512.000000) scale(0.100000,-0.100000)"
fill="#000000" stroke="none">
<path d="M1670 5113 c-195 -33 -359 -173 -432 -369 -21 -56 -22 -76 -26 -446
l-3 -387 -387 -3 c-370 -4 -390 -5 -446 -26 -169 -63 -291 -186 -348 -350
l-23 -67 0 -1415 c0 -1599 -7 -1461 82 -1640 78 -156 224 -288 393 -357 139
-56 62 -54 2030 -51 l1815 3 92 27 c338 100 582 348 675 688 l23 85 0 1935 0
1935 -23 67 c-57 163 -178 286 -348 350 l-59 23 -1495 1 c-822 1 -1506 0
-1520 -3z m2985 -310 c29 -9 66 -33 90 -58 81 -81 75 90 75 -1999 0 -1595 -2
-1871 -15 -1931 -38 -183 -176 -360 -345 -444 -154 -75 -59 -71 -1663 -69
l-1435 3 39 64 c21 35 48 89 60 120 51 136 49 62 49 2160 0 2198 -7 2015 75
2096 78 79 -41 73 1576 74 1320 1 1450 0 1494 -16z m-3445 -2646 c0 -1273 -2
-1460 -15 -1512 -64 -244 -310 -392 -550 -330 -164 43 -287 166 -330 330 -13
52 -15 228 -15 1405 0 1513 -5 1405 75 1485 71 71 83 73 483 74 l352 1 0
-1453z"/>
<path d="M2000 3692 c-107 -53 -107 -211 0 -264 32 -17 90 -18 765 -18 814 0
774 -3 822 69 48 71 20 175 -57 213 -32 17 -90 18 -765 18 -675 0 -733 -1
-765 -18z"/>
<path d="M2000 2752 c-103 -51 -108 -201 -8 -262 32 -20 53 -20 1173 -20 1120
0 1141 0 1173 20 100 61 95 211 -8 262 -33 17 -109 18 -1165 18 -1056 0 -1132
-1 -1165 -18z"/>
<path d="M2000 1692 c-107 -53 -107 -211 0 -264 33 -17 109 -18 1165 -18 1056
0 1132 1 1165 18 107 53 107 211 0 264 -33 17 -109 18 -1165 18 -1056 0 -1132
-1 -1165 -18z"/>
</g>
</svg>
