<?xml version="1.0" standalone="no"?>
<!DOCTYPE svg PUBLIC "-//W3C//DTD SVG 20010904//EN"
 "http://www.w3.org/TR/2001/REC-SVG-20010904/DTD/svg10.dtd">
<svg version="1.0" xmlns="http://www.w3.org/2000/svg"
 width="512.000000pt" height="512.000000pt" viewBox="0 0 512.000000 512.000000"
 preserveAspectRatio="xMidYMid meet">

<g transform="translate(0.000000,512.000000) scale(0.100000,-0.100000)"
fill="#000000" stroke="none">
<path d="M983 4465 c-166 -45 -285 -165 -328 -332 -22 -84 -22 -982 0 -1066
44 -169 163 -288 332 -332 84 -22 982 -22 1066 0 169 44 288 163 332 332 22
84 22 982 0 1066 -44 169 -163 288 -332 332 -82 21 -991 21 -1070 0z m1027
-323 c70 -35 70 -33 70 -542 0 -413 -2 -458 -18 -490 -35 -70 -33 -70 -542
-70 -509 0 -507 0 -542 70 -16 32 -18 77 -18 490 0 413 2 458 18 490 35 70 33
70 542 70 413 0 458 -2 490 -18z"/>
<path d="M3063 4465 c-166 -45 -285 -165 -328 -332 -22 -84 -22 -982 0 -1066
44 -169 163 -288 332 -332 84 -22 982 -22 1066 0 169 44 288 163 332 332 22
84 22 982 0 1066 -44 169 -163 288 -332 332 -82 21 -991 21 -1070 0z m1027
-323 c70 -35 70 -33 70 -542 0 -413 -2 -458 -18 -490 -35 -70 -33 -70 -542
-70 -509 0 -507 0 -542 70 -16 32 -18 77 -18 490 0 413 2 458 18 490 35 70 33
70 542 70 413 0 458 -2 490 -18z"/>
<path d="M983 2385 c-166 -45 -285 -165 -328 -332 -22 -84 -22 -982 0 -1066
44 -169 163 -288 332 -332 84 -22 982 -22 1066 0 169 44 288 163 332 332 22
84 22 982 0 1066 -44 169 -163 288 -332 332 -82 21 -991 21 -1070 0z m1027
-323 c70 -35 70 -33 70 -542 0 -413 -2 -458 -18 -490 -35 -70 -33 -70 -542
-70 -413 0 -458 2 -490 18 -70 35 -70 33 -70 542 0 509 0 507 70 542 32 16 77
18 490 18 413 0 458 -2 490 -18z"/>
<path d="M3063 2385 c-166 -45 -285 -165 -328 -332 -22 -84 -22 -982 0 -1066
44 -169 163 -288 332 -332 84 -22 982 -22 1066 0 169 44 288 163 332 332 22
84 22 982 0 1066 -44 169 -163 288 -332 332 -82 21 -991 21 -1070 0z m1027
-323 c70 -35 70 -33 70 -542 0 -413 -2 -458 -18 -490 -35 -70 -33 -70 -542
-70 -413 0 -458 2 -490 18 -70 35 -70 33 -70 542 0 509 0 507 70 542 32 16 77
18 490 18 413 0 458 -2 490 -18z"/>
</g>
</svg>
