<?xml version="1.0" standalone="no"?>
<!DOCTYPE svg PUBLIC "-//W3C//DTD SVG 20010904//EN"
 "http://www.w3.org/TR/2001/REC-SVG-20010904/DTD/svg10.dtd">
<svg version="1.0" xmlns="http://www.w3.org/2000/svg"
 width="512.000000pt" height="512.000000pt" viewBox="0 0 512.000000 512.000000"
 preserveAspectRatio="xMidYMid meet">

<g transform="translate(0.000000,512.000000) scale(0.100000,-0.100000)"
fill="#000000" stroke="none">
<path d="M505 4426 c-57 -18 -82 -33 -132 -79 -55 -51 -89 -115 -103 -198 -8
-45 -10 -429 -8 -1274 l3 -1210 23 -56 c32 -80 90 -142 170 -181 l67 -33 2035
0 2035 0 60 28 c76 35 146 110 177 185 l23 57 3 1210 c3 1260 2 1297 -39 1377
-32 62 -96 125 -158 155 l-56 28 -2030 2 c-1612 1 -2038 -1 -2070 -11z m4078
-209 c16 -10 37 -32 47 -50 19 -31 20 -60 20 -1250 0 -1345 4 -1256 -63 -1297
-31 -20 -66 -20 -2025 -20 -2202 0 -2031 -5 -2072 63 -19 31 -20 60 -20 1250
0 1303 -2 1245 48 1290 11 10 33 22 48 27 16 5 920 8 2009 7 1891 -2 1982 -3
2008 -20z"/>
<path d="M2165 3766 c-66 -21 -101 -43 -143 -91 -74 -84 -72 -63 -72 -760 0
-713 -3 -683 85 -771 80 -81 213 -110 311 -69 67 28 1034 588 1074 623 127
108 127 326 -1 436 -60 52 -1051 622 -1105 635 -54 14 -98 13 -149 -3z m604
-482 c273 -157 506 -295 519 -307 27 -25 30 -85 5 -116 -15 -17 -874 -520
-995 -582 -50 -25 -81 -24 -115 5 l-28 24 -3 602 -2 601 29 30 c20 20 39 29
62 29 24 0 158 -72 528 -286z"/>
<path d="M1151 1229 c-95 -19 -185 -102 -212 -197 -15 -53 -7 -147 16 -193 24
-47 82 -106 130 -132 l40 -22 1435 0 1435 0 40 22 c48 26 106 85 130 133 10
19 20 65 23 101 4 56 1 75 -20 120 -35 76 -70 114 -136 146 l-57 28 -1390 2
c-765 0 -1410 -3 -1434 -8z m2807 -216 c12 -10 24 -30 28 -45 5 -22 0 -33 -24
-58 l-30 -30 -1372 0 -1372 0 -30 30 c-24 25 -29 36 -24 58 4 15 16 35 28 45
19 16 100 17 1398 17 1298 0 1379 -1 1398 -17z"/>
</g>
</svg>
