<?xml version="1.0" standalone="no"?>
<!DOCTYPE svg PUBLIC "-//W3C//DTD SVG 20010904//EN"
 "http://www.w3.org/TR/2001/REC-SVG-20010904/DTD/svg10.dtd">
<svg version="1.0" xmlns="http://www.w3.org/2000/svg"
 width="512.000000pt" height="512.000000pt" viewBox="0 0 512.000000 512.000000"
 preserveAspectRatio="xMidYMid meet">

<g transform="translate(0.000000,512.000000) scale(0.100000,-0.100000)"
fill="#FFFFFF" stroke="none">
<path d="M2315 5109 c-800 -83 -1501 -518 -1927 -1196 -487 -774 -516 -1777
-75 -2578 117 -213 253 -395 430 -573 211 -214 421 -365 692 -498 260 -127
509 -203 810 -246 119 -17 512 -16 635 1 621 86 1149 361 1571 818 350 380
573 862 651 1408 17 118 17 512 0 630 -83 583 -321 1073 -715 1474 -404 411
-899 662 -1472 747 -123 18 -478 26 -600 13z m451 -380 c264 -25 505 -94 749
-213 235 -116 413 -243 595 -427 724 -730 835 -1885 262 -2738 -223 -332 -494
-569 -855 -746 -611 -301 -1317 -299 -1929 6 -347 172 -628 420 -843 744 -170
256 -280 533 -336 850 -20 110 -23 164 -23 355 0 191 3 245 23 355 97 546 371
1012 790 1347 440 352 1009 522 1567 467z"/>
<path d="M2485 4226 c-39 -18 -80 -62 -99 -108 -14 -33 -16 -135 -16 -815 0
-522 4 -791 11 -818 9 -34 69 -98 398 -426 213 -213 402 -395 421 -405 84 -44
202 -8 249 76 28 51 32 130 8 175 -9 17 -171 185 -361 375 l-346 345 0 730 c0
689 -1 732 -19 770 -22 47 -64 89 -104 104 -38 15 -106 13 -142 -3z"/>
</g>
</svg>
